<?xml version="1.0" ?><!DOCTYPE svg  PUBLIC '-//W3C//DTD SVG 1.1//EN'  'http://www.w3.org/Graphics/SVG/1.1/DTD/svg11.dtd'><svg enable-background="new 0 0 512 512" height="512px" id="Layer_1" version="1.1" viewBox="0 0 512 512" width="512px" xml:space="preserve" xmlns="http://www.w3.org/2000/svg" xmlns:xlink="http://www.w3.org/1999/xlink"><path d="M512,432c0,44.182-35.816,80-80,80H80c-44.183,0-80-35.818-80-80V80C0,35.817,35.817,0,80,0h352  c44.184,0,80,35.817,80,80V432z" fill="#181616"/><path d="M512,432V265.829L352.792,106.622l-46.868,46.868l-12.843-12.842L164.004,269.726l52.173,52.172  l-19.993,19.992l-50.727-50.727l-3.082-1.788l-3.192,0.058l-4,4l36.063,36.063l-4.213,4.212l48.079,48.079l-14.729,14.729  L315.871,512H432C476.184,512,512,476.182,512,432z" fill="#0C0C0C"/><path d="M147.848,243.371c-0.482,0,5.221,12.063,5.377,12.063c12.443,22.197,36.432,36.002,76.889,39.828  c-5.773,4.309-12.711,12.477-13.676,21.922c-7.256,4.609-21.861,6.135-33.209,2.619c-15.906-4.938-21.99-35.881-45.808-31.469  c-5.153,0.947-4.136,4.291,0.327,7.135c7.256,4.617,14.09,10.391,19.354,22.688c4.051,9.443,12.564,26.307,39.467,26.307  c10.684,0,18.164-1.266,18.164-1.266s0.207,24.102,0.207,33.469c0,10.814-14.848,13.855-14.848,19.051c0,2.051,4.92,2.25,8.857,2.25  c7.799,0,24.033-6.395,24.033-17.631c0-8.918,0.146-38.904,0.146-44.17c0-11.469,6.256-15.105,6.256-15.105  s0.775,61.232-1.49,69.461c-2.672,9.65-7.48,8.281-7.48,12.59c0,6.41,19.543,1.584,26.023-12.496  c4.998-10.926,2.809-71.029,2.809-71.029l5.343-0.111c0,0,0.293,27.506,0.112,40.086c-0.182,13.02-1.086,29.486,6.781,37.252  c5.17,5.109,21.922,14.063,21.922,5.875c0-4.756-9.178-8.658-9.178-21.533v-59.258c7.334,0,6.23,19.482,6.23,19.482l0.534,36.209  c0,0-1.62,13.184,14.52,18.697c5.696,1.965,17.863,2.5,18.44-0.791c0.577-3.293-14.666-8.195-14.804-18.389  c-0.095-6.24,0.284-9.875,0.284-36.949c0-27.076-3.705-37.08-16.597-45.051c39.776-4.016,64.403-13.691,76.397-39.586  c0.932,0.025,4.895-12.098,4.378-12.098c2.688-9.78,4.153-21.344,4.429-35.037c-0.068-37.156-18.155-50.288-21.628-56.458  c5.118-28.126-0.862-40.913-3.637-45.308c-10.254-3.585-35.657,9.22-49.547,18.233c-22.62-6.497-70.46-5.877-88.401,1.68  c-33.098-23.288-50.607-19.724-50.607-19.724s-11.322,19.939-2.998,49.107c-10.883,13.641-19.01,23.292-19.01,48.867  C142.229,219.208,143.953,232.107,147.848,243.371z" fill="#FFFFFF"/></svg>